<?xml version="1.0" encoding="UTF-8"?>
<svg xmlns="http://www.w3.org/2000/svg" xmlns:xlink="http://www.w3.org/1999/xlink" width="30px" height="11px" viewBox="0 0 29 11" version="1.1">
<g id="surface1">
<path style=" stroke:none;fill-rule:nonzero;fill:rgb(0%,0%,0%);fill-opacity:1;" d="M 0.128906 10.824219 L 0.128906 0 L 2.199219 0 C 2.5625 0 2.839844 0.0351562 3.03125 0.101562 C 3.300781 0.191406 3.527344 0.359375 3.710938 0.609375 C 3.894531 0.859375 4.042969 1.207031 4.152344 1.652344 C 4.261719 2.101562 4.320312 2.59375 4.320312 3.128906 C 4.320312 4.050781 4.167969 4.828125 3.871094 5.464844 C 3.574219 6.105469 3.039062 6.421875 2.261719 6.421875 L 0.851562 6.421875 L 0.851562 10.824219 L 0.128906 10.824219 M 0.851562 5.148438 L 2.273438 5.148438 C 2.742188 5.148438 3.074219 4.972656 3.273438 4.628906 C 3.472656 4.285156 3.570312 3.796875 3.570312 3.175781 C 3.570312 2.722656 3.511719 2.335938 3.394531 2.015625 C 3.28125 1.691406 3.125 1.476562 2.9375 1.371094 C 2.8125 1.308594 2.589844 1.277344 2.257812 1.277344 L 0.851562 1.277344 Z M 7.753906 9.855469 C 7.503906 10.273438 7.265625 10.570312 7.035156 10.742188 C 6.800781 10.914062 6.554688 11 6.289062 11 C 5.851562 11 5.515625 10.789062 5.28125 10.367188 C 5.046875 9.945312 4.929688 9.410156 4.929688 8.757812 C 4.929688 8.371094 4.972656 8.019531 5.0625 7.703125 C 5.152344 7.386719 5.265625 7.128906 5.410156 6.9375 C 5.554688 6.75 5.714844 6.601562 5.894531 6.503906 C 6.03125 6.4375 6.226562 6.367188 6.492188 6.304688 C 7.039062 6.175781 7.441406 6.023438 7.699219 5.847656 C 7.699219 5.667969 7.703125 5.550781 7.703125 5.5 C 7.703125 4.957031 7.636719 4.578125 7.511719 4.355469 C 7.335938 4.054688 7.082031 3.90625 6.742188 3.90625 C 6.425781 3.90625 6.191406 4.015625 6.039062 4.234375 C 5.886719 4.453125 5.777344 4.839844 5.703125 5.398438 L 5.046875 5.21875 C 5.105469 4.664062 5.203125 4.214844 5.339844 3.871094 C 5.480469 3.53125 5.679688 3.269531 5.9375 3.085938 C 6.195312 2.898438 6.5 2.808594 6.839844 2.808594 C 7.179688 2.808594 7.457031 2.882812 7.667969 3.042969 C 7.882812 3.199219 8.039062 3.398438 8.136719 3.636719 C 8.234375 3.875 8.304688 4.175781 8.347656 4.539062 C 8.367188 4.765625 8.378906 5.175781 8.378906 5.765625 L 8.378906 7.535156 C 8.378906 8.773438 8.394531 9.554688 8.421875 9.878906 C 8.449219 10.207031 8.511719 10.523438 8.59375 10.824219 L 7.890625 10.824219 C 7.820312 10.546875 7.773438 10.226562 7.753906 9.855469 M 7.699219 6.886719 C 7.453125 7.085938 7.085938 7.253906 6.597656 7.390625 C 6.316406 7.46875 6.121094 7.558594 6.007812 7.65625 C 5.894531 7.753906 5.804688 7.898438 5.742188 8.089844 C 5.679688 8.277344 5.648438 8.488281 5.648438 8.71875 C 5.648438 9.070312 5.71875 9.367188 5.855469 9.605469 C 5.988281 9.84375 6.1875 9.960938 6.453125 9.960938 C 6.710938 9.960938 6.941406 9.847656 7.144531 9.625 C 7.347656 9.402344 7.492188 9.09375 7.589844 8.707031 C 7.660156 8.40625 7.699219 7.960938 7.699219 7.375 Z M 9.425781 10.824219 L 9.425781 2.984375 L 10.03125 2.984375 L 10.03125 4.097656 C 10.324219 3.238281 10.746094 2.808594 11.296875 2.808594 C 11.539062 2.808594 11.757812 2.890625 11.960938 3.058594 C 12.160156 3.226562 12.3125 3.453125 12.410156 3.726562 C 12.511719 4.003906 12.578125 4.332031 12.621094 4.710938 C 12.648438 4.957031 12.660156 5.386719 12.660156 6 L 12.660156 10.824219 L 11.984375 10.824219 L 11.984375 6.054688 C 11.984375 5.515625 11.957031 5.109375 11.90625 4.839844 C 11.855469 4.570312 11.761719 4.355469 11.625 4.195312 C 11.492188 4.035156 11.335938 3.957031 11.15625 3.957031 C 10.871094 3.957031 10.621094 4.136719 10.414062 4.496094 C 10.203125 4.855469 10.097656 5.539062 10.097656 6.539062 L 10.097656 10.824219 Z M 13.695312 10.824219 L 13.695312 0 L 14.371094 0 L 14.371094 6.171875 L 15.96875 2.984375 L 16.839844 2.984375 L 15.320312 5.890625 L 16.992188 10.824219 L 16.164062 10.824219 L 14.84375 6.816406 L 14.371094 7.71875 L 14.371094 10.824219 Z M 17.527344 10.824219 L 17.527344 0 L 18.203125 0 L 18.203125 3.882812 C 18.519531 3.164062 18.914062 2.808594 19.394531 2.808594 C 19.6875 2.808594 19.945312 2.921875 20.164062 3.152344 C 20.378906 3.378906 20.535156 3.691406 20.632812 4.097656 C 20.722656 4.5 20.769531 5.085938 20.769531 5.851562 L 20.769531 10.824219 L 20.097656 10.824219 L 20.097656 5.851562 C 20.097656 5.191406 20.023438 4.707031 19.875 4.40625 C 19.730469 4.101562 19.523438 3.949219 19.257812 3.949219 C 19.058594 3.949219 18.871094 4.050781 18.691406 4.257812 C 18.515625 4.460938 18.390625 4.738281 18.316406 5.085938 C 18.242188 5.4375 18.203125 5.917969 18.203125 6.535156 L 18.203125 10.824219 Z M 21.988281 10.824219 L 21.988281 9.308594 L 22.753906 9.308594 L 22.753906 10.824219 Z M 26.523438 9.855469 C 26.277344 10.273438 26.035156 10.570312 25.800781 10.742188 C 25.574219 10.914062 25.324219 11 25.0625 11 C 24.621094 11 24.289062 10.789062 24.050781 10.367188 C 23.816406 9.945312 23.699219 9.410156 23.699219 8.757812 C 23.699219 8.371094 23.742188 8.019531 23.832031 7.703125 C 23.921875 7.386719 24.039062 7.128906 24.179688 6.9375 C 24.324219 6.75 24.484375 6.601562 24.667969 6.503906 C 24.800781 6.4375 25 6.367188 25.265625 6.304688 C 25.8125 6.175781 26.210938 6.023438 26.46875 5.847656 C 26.472656 5.667969 26.472656 5.550781 26.472656 5.5 C 26.472656 4.957031 26.410156 4.578125 26.28125 4.355469 C 26.109375 4.054688 25.855469 3.90625 25.515625 3.90625 C 25.195312 3.90625 24.960938 4.015625 24.8125 4.234375 C 24.660156 4.453125 24.546875 4.839844 24.472656 5.398438 L 23.816406 5.21875 C 23.875 4.664062 23.976562 4.214844 24.113281 3.871094 C 24.246094 3.53125 24.449219 3.269531 24.707031 3.085938 C 24.96875 2.898438 25.265625 2.808594 25.609375 2.808594 C 25.949219 2.808594 26.226562 2.882812 26.441406 3.042969 C 26.652344 3.199219 26.808594 3.398438 26.90625 3.636719 C 27.007812 3.875 27.078125 4.175781 27.117188 4.539062 C 27.140625 4.765625 27.152344 5.175781 27.152344 5.765625 L 27.152344 7.535156 C 27.152344 8.773438 27.164062 9.554688 27.191406 9.878906 C 27.222656 10.207031 27.277344 10.523438 27.363281 10.824219 L 26.660156 10.824219 C 26.589844 10.546875 26.542969 10.226562 26.523438 9.855469 M 26.46875 6.886719 C 26.226562 7.085938 25.855469 7.253906 25.367188 7.390625 C 25.089844 7.46875 24.894531 7.558594 24.777344 7.65625 C 24.664062 7.753906 24.574219 7.898438 24.511719 8.089844 C 24.449219 8.277344 24.417969 8.488281 24.417969 8.71875 C 24.417969 9.070312 24.484375 9.367188 24.621094 9.605469 C 24.761719 9.84375 24.957031 9.960938 25.222656 9.960938 C 25.480469 9.960938 25.710938 9.847656 25.914062 9.625 C 26.117188 9.402344 26.265625 9.09375 26.359375 8.707031 C 26.433594 8.40625 26.46875 7.960938 26.46875 7.375 Z M 28.199219 1.53125 L 28.199219 0 L 28.871094 0 L 28.871094 1.53125 L 28.199219 1.53125 M 28.199219 10.824219 L 28.199219 2.984375 L 28.871094 2.984375 L 28.871094 10.824219 Z M 28.199219 10.824219 "/>
</g>
</svg>
